#!OML:ASF H:\Terrain\Patient Classification 1\Walking\liu\liu.ASF
:FULLY-SPECIFIED
:DEGREES
1
root 7.48825 15.9816 -35.4705 6.80919 6.43628 3.66541
lowerback -5.29073 -3.44697 -4.4228
upperback -1.26812 -4.39824 2.15759
thorax 2.1545 -2.22836 4.38208
lowerneck -22.1525 -1.97402 -11.5654
upperneck 18.8967 -0.970822 8.78318
head 9.73703 -0.263706 4.88753
rclavicle 5.90887e-014 -1.03368e-014
rhumerus -48.0525 12.9166 -87.4019
rradius 28.8482
rwrist -11.0895
rhand -25.3172 -27.317
rfingers 7.12502
rthumb 1.2052 -57.2933
lclavicle 5.90887e-014 -1.03368e-014
lhumerus -9.75298 -26.8186 87.5251
lradius 35.7184
lwrist 8.15954
lhand -15.1223 -25.8408
lfingers 7.12502
lthumb 11.0468 3.84855
rfemur -39.6009 8.70813 9.93913
rtibia 26.9485
rfoot -21.3669 -11.8756
rtoes -14.0976
lfemur 9.73125 4.9248 -28.1781
ltibia -3.18055e-015
lfoot -12.2814 -3.36507
ltoes -5.33983
2
root 7.48502 15.9728 -35.2561 6.83018 6.30384 3.4296
lowerback -5.51728 -3.45546 -4.33992
upperback -1.23442 -4.40947 2.33526
thorax 2.32507 -2.2389 4.50472
lowerneck -22.7091 -1.94141 -11.2619
upperneck 19.4002 -0.838877 8.19048
head 9.99799 -0.250173 4.66261
rclavicle 2.73329e-016 -3.18055e-015
rhumerus -48.1366 12.1631 -86.5784
rradius 27.8216
rwrist -10.123
rhand -26.0474 -25.5451
rfingers 7.12502
rthumb 0.499955 -55.5243
lclavicle 2.73329e-016 -3.18055e-015
lhumerus -9.2478 -26.3958 87.4278
lradius 36.4524
lwrist 7.87004
lhand -15.5712 -25.6737
lfingers 7.12502
lthumb 10.6138 4.03825
rfemur -40.2949 11.6535 8.46734
rtibia 25.8239
rfoot -23.482 -13.6856
rtoes -14.2885
lfemur 10.5453 5.06797 -27.7991
ltibia 1.90833e-014
lfoot -12.8701 -3.2347
ltoes -6.27154
3
root 7.47976 15.9565 -35.0437 6.83788 6.20304 3.3358
lowerback -5.73398 -3.43065 -4.31066
upperback -1.25615 -4.37414 2.50042
thorax 2.43046 -2.22382 4.6517
lowerneck -22.6651 -1.99394 -11.9351
upperneck 19.6249 -0.763164 8.47753
head 10.0662 -0.237595 4.89873
rclavicle -2.98922e-014 -1.27222e-014
rhumerus -48.3978 11.3375 -85.6032
rradius 26.931
rwrist -9.14202
rhand -26.7769 -24.547
rfingers 7.12502
rthumb -0.204622 -54.5266
lclavicle -2.98922e-014 -1.27222e-014
lhumerus -8.86624 -25.769 87.5829
lradius 37.034
lwrist 7.57356
lhand -15.4866 -26.2279
lfingers 7.12502
lthumb 10.6954 3.47988
rfemur -41.2521 14.445 6.82929
rtibia 25.3416
rfoot -25.3873 -15.3964
rtoes -14.4051
lfemur 11.4286 5.17055 -27.5677
ltibia 2.8625e-014
lfoot -13.4047 -3.02493
ltoes -7.60659
4
root 7.4741 15.9558 -34.8295 6.87854 6.17867 3.49322
lowerback -5.99172 -3.50579 -4.42837
upperback -1.26006 -4.45427 2.39138
thorax 2.57954 -2.26719 4.58159
lowerneck -22.3095 -1.94467 -12.3746
upperneck 19.5249 -0.744711 9.12857
head 9.96635 -0.188694 5.20689
rclavicle -5.34234e-015 -1.51076e-014
rhumerus -48.7676 10.6918 -85.3522
rradius 26.2398
rwrist -9.09315
rhand -27.7912 -25.4123
rfingers 7.12502
rthumb -1.18426 -55.3887
lclavicle -5.34234e-015 -1.51076e-014
lhumerus -8.4936 -25.5594 87.1926
lradius 37.5783
lwrist 7.98076
lhand -14.654 -27.1491
lfingers 7.12502
lthumb 11.4985 2.5155
rfemur -42.1173 17.3546 4.72071
rtibia 24.8903
rfoot -27.915 -17.2875
rtoes -13.6296
lfemur 12.1674 5.1619 -27.5834
ltibia -1.59028e-014
lfoot -13.3923 -2.81343
ltoes -8.1605
5
root 7.46845 15.9395 -34.6131 7.02199 6.12094 3.696
lowerback -6.33678 -3.58935 -4.54616
upperback -1.19765 -4.53633 2.14003
thorax 2.83468 -2.31427 4.35489
lowerneck -22.3406 -1.77896 -11.8131
upperneck 19.4661 -0.694712 9.11015
head 9.94146 -0.122894 5.11137
rclavicle 2.24627e-014 -1.27222e-014
rhumerus -48.7769 9.61878 -85.0495
rradius 25.3734
rwrist -8.8545
rhand -28.9461 -24.2965
rfingers 7.12502
rthumb -2.2997 -54.2638
lclavicle 2.24627e-014 -1.27222e-014
lhumerus -7.95992 -25.2041 86.5299
lradius 38.1982
lwrist 8.19124
lhand -13.7133 -27.9802
lfingers 7.12502
lthumb 12.4055 1.63167
rfemur -42.5206 17.2204 4.36611
rtibia 24.6364
rfoot -29.399 -16.2228
rtoes -13.8812
lfemur 12.7645 5.15533 -27.6267
ltibia -4.77083e-014
lfoot -13.2445 -2.82145
ltoes -8.2918
6
root 7.46437 15.9035 -34.4025 7.03181 5.90311 3.85642
lowerback -6.40343 -3.63291 -4.75261
upperback -1.16531 -4.57587 2.08568
thorax 2.92144 -2.33838 4.40473
lowerneck -22.5931 -1.57743 -11.3249
upperneck 19.6859 -0.471603 8.74929
head 10.0366 -0.0251067 4.94041
rclavicle -9.61869e-014 -2.38542e-015
rhumerus -48.5647 8.28145 -83.8923
rradius 24.2928
rwrist -7.34911
rhand -28.3011 -22.4108
rfingers 7.12502
rthumb -1.67673 -52.384
lclavicle -9.61869e-014 -2.38542e-015
lhumerus -7.62338 -24.895 86.2784
lradius 38.9152
lwrist 8.45915
lhand -14.3311 -27.8316
lfingers 7.12502
lthumb 11.8099 1.81545
rfemur -42.8209 17.3104 4.1843
rtibia 24.5449
rfoot -28.6895 -15.6025
rtoes -16.0668
lfemur 13.5183 5.32511 -27.6293
ltibia -7.95139e-014
lfoot -13.2843 -2.86857
ltoes -9.31955
7
root 7.4588 15.8711 -34.1922 6.94948 5.64414 3.82598
lowerback -6.30401 -3.72802 -4.9197
upperback -1.22244 -4.70259 2.28018
thorax 2.85104 -2.40205 4.69586
lowerneck -22.7642 -1.41774 -11.4044
upperneck 19.9671 -0.159423 8.53862
head 10.1325 0.0845587 4.93406
rclavicle -3.39176e-014 -1.82882e-014
rhumerus -48.5873 7.65162 -82.7405
rradius 23.3558
rwrist -5.8936
rhand -27.5635 -21.0793
rfingers 7.12502
rthumb -0.964373 -51.0568
lclavicle -3.39176e-014 -1.82882e-014
lhumerus -7.601 -24.3635 86.3841
lradius 39.4641
lwrist 8.787
lhand -15.0384 -27.2595
lfingers 7.12502
lthumb 11.1278 2.4255
rfemur -42.9907 17.5448 4.33443
rtibia 24.7337
rfoot -27.9737 -15.8456
rtoes -16.7671
lfemur 14.4421 5.56033 -27.4145
ltibia -5.08889e-014
lfoot -13.2185 -2.79357
ltoes -10.4395
8
root 7.44873 15.8524 -33.9728 7.01252 5.42943 3.95957
lowerback -6.404 -3.86048 -5.22493
upperback -1.34711 -4.85898 2.40643
thorax 2.8323 -2.48056 4.98055
lowerneck -22.5801 -1.28322 -11.5742
upperneck 19.9443 0.0996345 8.40187
head 10.0615 0.172004 4.94506
rclavicle -1.69215e-014 -6.36111e-015
rhumerus -48.8013 7.3011 -81.8689
rradius 22.633
rwrist -4.68846
rhand -27.3579 -20.6659
rfingers 7.12502
rthumb -0.765738 -50.6442
lclavicle -1.69215e-014 -6.36111e-015
lhumerus -7.8355 -23.5487 86.6371
lradius 39.8889
lwrist 8.52678
lhand -15.1519 -27.4017
lfingers 7.12502
lthumb 11.0183 2.28917
rfemur -42.6306 14.8413 6.12502
rtibia 25.0654
rfoot -25.6612 -13.7583
rtoes -17.3767
lfemur 15.3449 5.70589 -27.3378
ltibia 6.36111e-015
lfoot -13.0306 -2.86612
ltoes -10.7343
